<?xml version="1.0"?>
<svg width="640" height="480" xmlns="http://www.w3.org/2000/svg" xmlns:svg="http://www.w3.org/2000/svg">
 <!-- Created with SVG-edit - http://svg-edit.googlecode.com/ -->

 <g>
  <title>Layer 1</title>
  <g stroke="null" id="svg_18">
   <g id="svg_20">
    <g stroke="null" transform="matrix(1.90404 0.0179012 -0.0179012 1.90404 -380.092 -266.475)" id="svg_10">
     <g id="svg_21">
      <g id="svg_22">
       <path stroke="#000000" opacity="0.25" id="svg_1" d="m358.044495,155.551239c0,0 -141.000015,179 -141.000015,179c0,0 430.698196,-4.402832 259.000015,0c-171.69812,4.402771 -269.000015,-127 -269.000015,-127c0,0 420.107498,-12.918182 283.000015,-6c-137.107422,6.918213 -220.987823,121.050079 -220.987823,121.050079c0,0 112.987823,-158.050079 91.987823,-168.050079" stroke-width="0" fill="#00bfbf"/>
       <path transform="rotate(2.22162 401.532 278.19)" stroke="#000000" id="svg_5" opacity="0.25" d="m404.815308,374.489349c0,0 106.252014,-193.682999 106.252014,-193.682999c0,0 -325.61647,16.544601 -195.913055,11.605347c129.703369,-4.939148 203.656891,125.697586 203.656891,125.697586c0,0 -317.352264,14.404968 -213.784302,6.782043c103.567963,-7.622833 166.765533,-131.110413 166.765533,-131.110413c0,0 -85.121368,171.002594 -69.241943,181.792786" stroke-width="0" fill="#00bfbf"/>
      </g>
     </g>
    </g>
    <polygon transform="rotate(-0.30506 342.595 236.222)" stroke="#000000" opacity="0.55" stroke-width="0" points="343.308 145.077 438.743 215.459 400.865 327.367 282.021 326.147 246.448 213.486 343.308 145.077" strokeWidth="0" strokecolor="#000000" fill="#007fff" edge="177.571674" orient="x" sides="5" shape="regularPoly" id="svg_9" cy="46.527456" cx="251.091896"/>
    <g transform="matrix(0.999947 0.0102619 -0.0102619 0.999947 2.54714 -3.44079)" stroke="null" id="svg_17">
     <rect stroke="#000000" stroke-width="0" opacity="0.85" id="svg_15" height="75.856389" width="43.490996" y="234.791997" x="320.052542" stroke-linecap="null" stroke-linejoin="null" stroke-dasharray="null" fill="#ff7f00"/>
     <circle stroke="#000000" stroke-width="0" opacity="0.85" id="svg_16" r="22.334124" cy="204.891935" cx="341.798044" stroke-linecap="null" stroke-linejoin="null" stroke-dasharray="null" fill="#ff7f00"/>
    </g>
   </g>
  </g>
  <text font-weight="bold" xml:space="preserve" text-anchor="middle" font-family="Sans-serif" font-size="24" id="svg_19" y="400.574077" x="230.517821" opacity="0.65" stroke-linecap="null" stroke-linejoin="null" stroke-dasharray="null" stroke-width="0" stroke="#000000" fill="#4c4c4c">IVAN PUERTO PARRA</text>
 </g>
</svg>